<svg width="24" height="24" viewBox="0 0 24 24" fill="none" xmlns="http://www.w3.org/2000/svg">
<path d="M11.103 10.438C10.7971 10.6146 10.5505 10.878 10.3943 11.1948C10.238 11.5116 10.1793 11.8676 10.2254 12.2178C10.2715 12.568 10.4204 12.8966 10.6533 13.1622C10.8861 13.4278 11.1925 13.6183 11.5337 13.7098C11.8749 13.8012 12.2355 13.7895 12.57 13.676C12.9045 13.5625 13.1978 13.3523 13.4129 13.0721C13.6279 12.7919 13.7551 12.4543 13.7782 12.1018C13.8014 11.7493 13.7195 11.3979 13.543 11.092C13.4258 10.8888 13.2696 10.7107 13.0835 10.5679C12.8975 10.4251 12.6851 10.3203 12.4585 10.2596C12.2319 10.1988 11.9956 10.1833 11.763 10.2139C11.5304 10.2446 11.3061 10.3207 11.103 10.438ZM19.108 12.376C18.9907 12.242 18.867 12.1077 18.737 11.973C18.8277 11.877 18.9157 11.7813 19.001 11.686C20.606 9.882 21.284 8.072 20.656 6.985C20.054 5.942 18.263 5.631 16.02 6.067C15.7993 6.11033 15.5797 6.159 15.361 6.213C15.319 6.069 15.2747 5.92567 15.228 5.783C14.467 3.49 13.238 1.999 11.982 2C10.778 2 9.614 3.397 8.871 5.558C8.79767 5.77133 8.73 5.986 8.668 6.202C8.522 6.166 8.37533 6.13267 8.228 6.102C5.862 5.617 3.957 5.937 3.33 7.026C2.729 8.069 3.357 9.776 4.858 11.498C5.00733 11.668 5.16067 11.8347 5.318 11.998C5.132 12.188 4.957 12.379 4.793 12.569C3.328 14.267 2.736 15.945 3.336 16.984C3.956 18.058 5.834 18.409 8.121 17.959C8.30633 17.9223 8.49067 17.881 8.674 17.835C8.74067 18.069 8.81433 18.3013 8.895 18.532C9.635 20.649 10.792 22 11.992 22C13.232 22 14.474 20.547 15.227 18.341C15.287 18.167 15.342 17.986 15.396 17.8C15.6327 17.8587 15.871 17.9107 16.111 17.956C18.314 18.373 20.063 18.046 20.662 17.006C21.281 15.931 20.642 14.129 19.108 12.376ZM4.07 7.452C4.456 6.782 6.013 6.52 8.056 6.94C8.18667 6.96667 8.31967 6.99667 8.455 7.03C8.25529 7.91236 8.11432 8.80699 8.033 9.708C7.29625 10.2261 6.59379 10.7912 5.93 11.4C5.784 11.2487 5.64167 11.0937 5.503 10.935C4.216 9.461 3.708 8.081 4.07 7.452ZM7.957 13.18C7.447 12.793 6.972 12.397 6.541 11.999C6.971 11.603 7.446 11.209 7.956 10.823C7.93733 11.2157 7.92833 11.6087 7.929 12.002C7.929 12.3953 7.93833 12.788 7.957 13.18ZM7.957 17.12C7.09022 17.313 6.19531 17.3449 5.317 17.214C5.07621 17.1952 4.84185 17.1272 4.62839 17.0141C4.41494 16.9011 4.22693 16.7456 4.076 16.557C3.711 15.927 4.187 14.579 5.44 13.127C5.59733 12.945 5.76 12.7677 5.928 12.595C6.59209 13.2075 7.29596 13.7754 8.035 14.295C8.11713 15.2074 8.25944 16.1134 8.461 17.007C8.29433 17.049 8.126 17.087 7.956 17.121L7.957 17.12ZM15.057 9.081C14.7217 8.86967 14.3823 8.66533 14.039 8.468C13.7003 8.27333 13.358 8.08567 13.012 7.905C13.5808 7.66475 14.1612 7.45283 14.751 7.27C14.8834 7.86814 14.9855 8.47257 15.057 9.081ZM9.68 5.835C10.316 3.985 11.258 2.855 11.984 2.855C12.757 2.854 13.761 4.073 14.418 6.052C14.4607 6.18133 14.5007 6.31133 14.538 6.442C13.6755 6.70929 12.8317 7.03333 12.012 7.412C11.195 7.02869 10.3531 6.70095 9.492 6.431C9.55 6.231 9.61267 6.03233 9.68 5.835ZM9.28 7.259C9.86709 7.44378 10.4445 7.65806 11.01 7.901C10.3087 8.26233 9.626 8.656 8.962 9.082C9.042 8.444 9.149 7.833 9.28 7.259ZM8.963 14.919C9.29433 15.1317 9.63067 15.336 9.972 15.532C10.32 15.732 10.6723 15.924 11.029 16.108C10.4594 16.3594 9.87733 16.5813 9.285 16.773C9.14737 16.161 9.03991 15.5426 8.963 14.92V14.919ZM14.419 18.065C14.153 18.912 13.7333 19.7029 13.181 20.398C13.0446 20.5973 12.8689 20.7665 12.6645 20.8951C12.4602 21.0238 12.2316 21.1092 11.993 21.146C11.264 21.146 10.335 20.061 9.703 18.25C9.62833 18.036 9.55967 17.82 9.497 17.602C10.3622 17.3229 11.2075 16.9855 12.027 16.592C12.8537 16.9737 13.7045 17.3008 14.574 17.571C14.526 17.737 14.4743 17.9017 14.419 18.065ZM14.781 16.741C14.1835 16.5544 13.5955 16.3388 13.019 16.095C13.3583 15.917 13.7 15.7287 14.044 15.53C14.3973 15.326 14.7413 15.117 15.076 14.903C15.0092 15.5203 14.9107 16.1338 14.781 16.741ZM15.228 11.998C15.228 12.6053 15.209 13.212 15.171 13.818C14.678 14.152 14.158 14.478 13.617 14.79C13.077 15.101 12.544 15.387 12.02 15.646C11.4687 15.382 10.928 15.0973 10.398 14.792C9.87133 14.4887 9.35667 14.1657 8.854 13.823C8.80733 13.2163 8.784 12.609 8.784 12.001C8.784 11.3937 8.80667 10.7867 8.852 10.18C9.85726 9.49368 10.9129 8.88428 12.01 8.357C12.554 8.62167 13.0883 8.90533 13.613 9.208C14.1397 9.51067 14.6563 9.83033 15.163 10.167C15.2063 10.7763 15.228 11.3867 15.228 11.998ZM16.184 6.905C18.106 6.532 19.554 6.783 19.917 7.412C20.304 8.082 19.75 9.56 18.363 11.118C18.2863 11.204 18.207 11.2903 18.125 11.377C17.4495 10.7663 16.7332 10.2024 15.981 9.689C15.9053 8.79795 15.77 7.91298 15.576 7.04C15.7827 6.98933 15.9853 6.94433 16.184 6.905ZM16.054 10.79C16.5616 11.1604 17.0495 11.557 17.516 11.978C17.0517 12.4058 16.5654 12.809 16.059 13.186C16.0743 12.79 16.082 12.394 16.082 11.998C16.082 11.5953 16.0727 11.1927 16.054 10.79ZM19.923 16.579C19.559 17.21 18.155 17.473 16.27 17.117C16.054 17.0763 15.8327 17.0277 15.606 16.971C15.7953 16.0867 15.9246 15.1907 15.993 14.289C16.7438 13.767 17.4578 13.194 18.13 12.574C18.248 12.696 18.36 12.8173 18.466 12.938C19.0671 13.5916 19.5426 14.3502 19.869 15.176C19.9735 15.3937 20.0321 15.6306 20.0414 15.8719C20.0507 16.1132 20.0104 16.3539 19.923 16.579Z" fill="black"/>
</svg>
