<svg width="32" height="32" viewBox="0 0 32 32" fill="none" xmlns="http://www.w3.org/2000/svg">
<rect x="0.5" y="0.5" width="31" height="31" rx="1.5" fill="#F5F4F0" stroke="black"/>
<path d="M13.5469 6.96875V15.2969H17.4062C18.2917 15.2969 18.9375 15.1042 19.3438 14.7188C19.7604 14.3229 20.0365 13.5469 20.1719 12.3906H20.75V19.5625H20.1719C20.1615 18.7396 20.0521 18.1354 19.8438 17.75C19.6458 17.3646 19.3646 17.0781 19 16.8906C18.6458 16.6927 18.1146 16.5938 17.4062 16.5938H13.5469V23.25C13.5469 24.3229 13.6146 25.0312 13.75 25.375C13.8542 25.6354 14.0729 25.8594 14.4062 26.0469C14.8646 26.2969 15.3438 26.4219 15.8438 26.4219H16.6094V27H7.51562V26.4219H8.26562C9.14062 26.4219 9.77604 26.1667 10.1719 25.6562C10.4219 25.3229 10.5469 24.5208 10.5469 23.25V9.5625C10.5469 8.48958 10.4792 7.78125 10.3438 7.4375C10.2396 7.17708 10.026 6.95312 9.70312 6.76562C9.25521 6.51562 8.77604 6.39062 8.26562 6.39062H7.51562V5.8125H23.2812L23.4844 10.4688H22.9375C22.6667 9.47917 22.349 8.75521 21.9844 8.29688C21.6302 7.82812 21.1875 7.48958 20.6562 7.28125C20.1354 7.07292 19.3229 6.96875 18.2188 6.96875H13.5469Z" fill="black"/>
</svg>
