<svg width="32" height="32" viewBox="0 0 32 32" fill="none" xmlns="http://www.w3.org/2000/svg">
<rect x="0.75" y="0.75" width="30.5" height="30.5" fill="white" stroke="black" stroke-width="1.5"/>
<path d="M26.6123 15.7676H19.0977C19.1855 17.584 19.6689 19.0195 20.5479 20.0742C21.2217 20.8848 22.0322 21.29 22.9795 21.29C23.5654 21.29 24.0977 21.1289 24.5762 20.8066C25.0547 20.4746 25.5674 19.8838 26.1143 19.0342L26.6123 19.3564C25.8701 20.8701 25.0498 21.9443 24.1514 22.5791C23.2529 23.2041 22.2129 23.5166 21.0312 23.5166C19 23.5166 17.4619 22.7354 16.417 21.1729C15.5771 19.9131 15.1572 18.3506 15.1572 16.4854C15.1572 14.2002 15.7725 12.3838 17.0029 11.0361C18.2432 9.67871 19.6934 9 21.3535 9C22.7402 9 23.9414 9.57129 24.957 10.7139C25.9824 11.8467 26.5342 13.5312 26.6123 15.7676ZM23.0088 14.7861C23.0088 13.2139 22.9209 12.1348 22.7451 11.5488C22.5791 10.9629 22.3154 10.5186 21.9541 10.2158C21.749 10.04 21.4756 9.95215 21.1338 9.95215C20.626 9.95215 20.2109 10.2012 19.8887 10.6992C19.3125 11.5684 19.0244 12.7598 19.0244 14.2734V14.7861H23.0088Z" fill="black"/>
</svg>
