<svg width="22" height="22" viewBox="0 0 22 22" fill="none" xmlns="http://www.w3.org/2000/svg">
<path d="M7.68117 20.9741L7.72028 20.9872L7.761 20.9937C8.12337 21.0517 8.46422 20.9786 8.70888 20.737C8.93594 20.5127 9 20.2206 9 20V18.31V17.6901L8.39415 17.8213C7.14148 18.0927 6.46279 17.781 6.10067 17.4803C5.90942 17.3215 5.78526 17.1481 5.70957 17.0156C5.6719 16.9497 5.64706 16.8954 5.63253 16.8604C5.62529 16.843 5.6207 16.8306 5.61844 16.8242C5.61787 16.8226 5.61746 16.8214 5.61718 16.8206L5.61238 16.8048L5.60479 16.7857C5.594 16.7585 5.5831 16.7317 5.5721 16.7052C6.0417 17.2308 6.60794 17.4557 7.15428 17.5031C7.82166 17.561 8.42121 17.3525 8.73403 17.2208L8.99625 17.1104L9.03527 16.8286C9.11164 16.2771 9.32484 15.9521 9.50301 15.793L10.3371 15.0483L9.22595 14.9231C8.1456 14.8015 7.12932 14.5382 6.38412 13.9122C5.66313 13.3065 5.12 12.2949 5.12 10.5C5.12 9.51687 5.45191 8.74684 6.01879 8.12763L6.2309 7.89595L6.11424 7.6043C6.04786 7.43836 5.78064 6.67255 6.10665 5.63383C6.16248 5.63961 6.22899 5.64949 6.3065 5.66568C6.67771 5.74324 7.30561 5.96668 8.22015 6.58435L8.41159 6.71365L8.63414 6.65167C9.37691 6.44482 10.1915 6.34 11 6.34C11.8085 6.34 12.6231 6.44482 13.3659 6.65167L13.5884 6.71365L13.7798 6.58435C14.6944 5.96668 15.3223 5.74324 15.6935 5.66568C15.771 5.64949 15.8375 5.63961 15.8934 5.63382C16.2194 6.67254 15.9521 7.43836 15.8858 7.6043L15.7691 7.89595L15.9812 8.12763C16.5481 8.74684 16.88 9.51687 16.88 10.5C16.88 12.2996 16.3347 13.3076 15.6114 13.9094C14.8629 14.5323 13.8418 14.7912 12.7543 14.9131L11.615 15.0408L12.4837 15.7889C12.7138 15.987 13 16.4474 13 17.26V20C13 20.2194 13.0634 20.5145 13.2923 20.7407C13.5409 20.9863 13.888 21.0575 14.2569 20.9924L14.2941 20.9858L14.3299 20.9737C18.496 19.5676 21.5 15.642 21.5 11C21.5 9.62112 21.2284 8.25574 20.7007 6.98182C20.1731 5.7079 19.3996 4.55039 18.4246 3.57538C17.4496 2.60036 16.2921 1.82694 15.0182 1.29926C13.7443 0.771591 12.3789 0.5 11 0.5C9.62112 0.5 8.25574 0.771591 6.98182 1.29926C5.7079 1.82694 4.55039 2.60036 3.57538 3.57538C1.60625 5.54451 0.5 8.21523 0.5 11C0.5 15.642 3.51415 19.5781 7.68117 20.9741Z" fill="#E7E6E1" stroke="#262B30"/>
</svg>
