<svg width="90" height="34" viewBox="0 0 90 34" fill="none" xmlns="http://www.w3.org/2000/svg">
<mask id="path-1-outside-1_540_3870" maskUnits="userSpaceOnUse" x="0" y="0.0287323" width="90" height="33" fill="black">
<rect fill="white" y="0.0287323" width="90" height="33"/>
<path fill-rule="evenodd" clip-rule="evenodd" d="M46.7568 10.5991L50.8813 10.3341C50.9753 11.0044 51.1479 11.5032 51.4301 11.8617C51.8849 12.4228 52.5122 12.7034 53.3433 12.7034C53.955 12.7034 54.4411 12.5631 54.7704 12.2669C55.0841 12.0331 55.2723 11.659 55.2723 11.2694C55.2723 10.8953 55.0998 10.5368 54.8018 10.303C54.4881 10.0224 53.7511 9.74184 52.5906 9.49244C50.6931 9.0716 49.3287 8.51047 48.5289 7.79347C47.7291 7.12323 47.2744 6.14125 47.3057 5.09692C47.3057 4.37993 47.5253 3.66293 47.933 3.07062C48.4035 2.40038 49.0464 1.87043 49.8149 1.57428C50.646 1.21578 51.8065 1.02873 53.2649 1.02873C55.0527 1.02873 56.4171 1.35606 57.358 2.0263C58.2989 2.68095 58.8635 3.74086 59.036 5.19045L54.9586 5.42425C54.8488 4.80077 54.6293 4.34875 54.2686 4.0526C53.9079 3.75645 53.4374 3.61617 52.8258 3.61617C52.324 3.61617 51.9476 3.72527 51.6967 3.9279C51.4615 4.11495 51.3047 4.39551 51.3204 4.70725C51.3204 4.94106 51.4458 5.15927 51.634 5.29956C51.8379 5.4866 52.324 5.65805 53.0924 5.81392C54.99 6.21919 56.3386 6.62445 57.1698 7.04529C58.0009 7.46614 58.5969 7.98051 58.9576 8.5884C58.9894 8.64115 59.0199 8.69458 59.049 8.74862C59.7867 6.93045 61.0868 5.21501 62.8664 3.88207C67.3143 0.550567 73.2476 0.739653 76.0847 4.48172C78.9219 8.22379 77.4696 13.9447 73.0217 17.2762C72.8241 17.4242 72.6236 17.5652 72.4206 17.6993C73.9714 17.9333 75.2204 18.5177 76.1608 19.4525C76.7933 20.0812 77.2704 20.8366 77.588 21.7188V17.8315H77.6036H81.9319V28.3371H88.6909V31.7662H77.588V27.8613C77.4845 28.1571 77.3641 28.4351 77.2272 28.6956C76.694 29.7243 75.8629 30.566 74.8435 31.1271C73.7928 31.7039 72.4912 32 70.9387 32C69.3548 32 68.0532 31.7506 67.0182 31.2518C65.9518 30.7219 65.0736 29.8958 64.4933 28.8826C63.8504 27.7915 63.521 26.4355 63.521 24.7988C63.521 22.5902 64.1267 20.8514 65.3236 19.5967C63.1202 19.3928 61.1256 18.4205 59.8033 16.6766C59.0874 15.7323 58.6446 14.6621 58.4542 13.536C57.9718 14.1096 57.362 14.5605 56.668 14.8544C55.7741 15.244 54.645 15.4467 53.2963 15.4467C50.9126 15.4467 49.266 14.9946 48.3407 14.075C47.4155 13.1554 46.8666 12.0019 46.7568 10.5991ZM2.98798 15.1973V1.27812H10.2174C11.5504 1.27812 12.5854 1.38723 13.2911 1.62104C13.9812 1.83925 14.5928 2.29127 15.0005 2.89917C15.4553 3.5694 15.6748 4.34875 15.6592 5.15927C15.7062 6.53092 15.0005 7.84023 13.793 8.52605C13.3225 8.79103 12.805 8.97808 12.2718 9.0716C12.6639 9.18071 13.0559 9.36775 13.4009 9.58597C13.6675 9.80418 13.8871 10.0536 14.0909 10.3186C14.3262 10.5835 14.53 10.8797 14.7025 11.1914L16.8039 15.2284H11.8798L9.5588 10.942C9.26083 10.3965 9.00992 10.038 8.77469 9.86653C8.46104 9.64831 8.08467 9.5392 7.7083 9.5392H7.33193V15.1973H2.98798ZM7.33193 6.9206H9.16674C9.5588 6.88942 9.93517 6.82708 10.3115 6.73355C10.5938 6.68679 10.8447 6.53092 11.0172 6.29712C11.4407 5.73599 11.3779 4.94106 10.8604 4.45786C10.5781 4.22406 10.0293 4.09936 9.24515 4.09936H7.33193V6.9206ZM2 27.1525L6.1244 26.8875C6.2185 27.5577 6.391 28.0565 6.67328 28.415C7.11238 28.9761 7.75535 29.2723 8.5865 29.2723C9.19811 29.2723 9.68425 29.132 10.0136 28.8358C10.3272 28.5864 10.5154 28.228 10.5154 27.8383C10.5154 27.4642 10.3429 27.1057 10.0449 26.8719C9.7313 26.5913 8.99424 26.3108 7.81808 26.0614C5.92054 25.6405 4.55619 25.0794 3.7564 24.3624C2.95661 23.6921 2.50183 22.7102 2.53319 21.6658C2.53319 20.9488 2.75274 20.2318 3.16048 19.6395C3.63094 18.9693 4.27391 18.4394 5.04234 18.1432C5.87349 17.7847 7.03397 17.5977 8.49241 17.5977C10.2802 17.5977 11.6445 17.925 12.5854 18.5952C13.2457 19.0655 13.7129 19.72 13.9925 20.5694C14.2359 20.1575 14.5248 19.7851 14.8594 19.4525C16.0983 18.2211 17.839 17.5977 20.0972 17.5977C21.8693 17.5977 23.2493 17.9562 24.2687 18.6576C25.2723 19.3746 26.0251 20.4657 26.5269 21.9308L22.7005 22.7725C22.6064 22.4452 22.4652 22.1179 22.277 21.8373C22.0418 21.51 21.7439 21.2606 21.3832 21.0735C21.0225 20.8865 20.6147 20.8086 20.207 20.8086C19.219 20.8086 18.4663 21.1982 17.9488 21.9932C17.5567 22.5699 17.3529 23.4895 17.3529 24.7365C17.3529 26.2796 17.5881 27.3395 18.0586 27.9162C18.529 28.4929 19.1877 28.7735 20.0502 28.7735C20.8813 28.7735 21.5086 28.5397 21.932 28.0877C22.3555 27.6045 22.6691 26.9342 22.8573 26.0614L26.6524 27.1992C26.4485 28.15 26.0251 29.0541 25.4448 29.849C24.9116 30.5504 24.206 31.096 23.4062 31.4545C22.5907 31.813 21.5557 32 20.3011 32C18.7799 32 17.5254 31.7818 16.5687 31.3454C15.6744 30.9439 14.8995 30.2524 14.2318 29.2829C14.1563 29.4287 14.0726 29.5709 13.9812 29.7087C13.4636 30.4725 12.7423 31.0648 11.8954 31.4233C11.0016 31.8129 9.87244 32.0156 8.52377 32.0156C6.14009 32.0156 4.49346 31.5636 3.56821 30.6439C2.64297 29.7087 2.12546 28.5553 2 27.1525ZM10.1704 21.9932L13.436 21.8059C13.2159 22.4719 13.0812 23.212 13.0311 24.0254C12.8335 23.8913 12.617 23.7646 12.3816 23.6454C11.5504 23.2245 10.2018 22.8193 8.30422 22.414C7.5358 22.2582 7.04965 22.0867 6.84578 21.8997C6.6576 21.7594 6.53214 21.5412 6.53214 21.3073C6.51646 20.9956 6.6576 20.715 6.90851 20.528C7.15943 20.3098 7.5358 20.2007 8.03763 20.2007C8.64923 20.1851 9.13538 20.3254 9.48038 20.6215C9.84107 20.9177 10.0606 21.3697 10.1704 21.9932ZM31.7177 17.8315H36.046V22.7102H40.782V17.8315H45.1416V21.4625C45.4568 20.7029 45.8963 20.0428 46.4589 19.4837C47.7291 18.2211 49.5169 17.5821 51.7908 17.5821C54.1274 17.5821 55.9152 18.2056 57.1854 19.4525C58.4557 20.6995 59.083 22.4452 59.083 24.6897C59.083 26.3264 58.8007 27.6512 58.2518 28.6956C57.7186 29.7243 56.8875 30.566 55.8681 31.1271C54.8174 31.7039 53.5158 32 51.9633 32C50.3794 32 49.0778 31.7506 48.0428 31.2518C46.9764 30.7219 46.0982 29.8958 45.5179 28.8826C45.3775 28.6443 45.252 28.3933 45.1416 28.1295V31.7662H40.782V26.1237H36.046V31.7662H31.7177V17.8315ZM49.658 27.8539C49.1405 27.2304 48.8739 26.2172 48.8739 24.8144C48.8739 23.396 49.1405 22.3829 49.6737 21.775C50.2069 21.1671 50.9753 20.8242 51.7751 20.8553C52.6847 20.8553 53.4061 21.1515 53.9392 21.7594C54.4724 22.3517 54.739 23.3181 54.739 24.6274C54.739 26.1861 54.4881 27.2616 53.9706 27.8695C53.4531 28.4774 52.7317 28.7735 51.8065 28.7735C50.8969 28.7735 50.1755 28.4618 49.658 27.8539ZM68.6334 27.8539C68.1159 27.2304 67.8493 26.2172 67.8493 24.8144C67.8493 23.396 68.1159 22.3829 68.6491 21.775C69.1666 21.1671 69.9507 20.8242 70.7505 20.8553C71.6601 20.8553 72.3815 21.1515 72.9146 21.7594C73.4478 22.3517 73.7144 23.3181 73.7144 24.6274C73.7144 26.1861 73.4635 27.2616 72.946 27.8695C72.4285 28.4774 71.7071 28.7735 70.7819 28.7735C69.8723 28.7735 69.1509 28.4618 68.6334 27.8539ZM63.2439 4.37999C58.9765 7.5763 57.7414 12.921 60.3043 16.3014C62.8672 19.6817 68.3767 19.9746 72.6441 16.7783C76.9115 13.582 78.1467 8.23729 75.5838 4.85695C73.0209 1.47661 67.5113 1.18368 63.2439 4.37999ZM65.1049 8.46371L63.5367 9.5548L65.7322 12.6254C65.9047 12.8281 66.0145 13.093 66.0616 13.358C66.0772 13.5451 65.9675 13.7321 65.8106 13.8256C65.7322 13.888 65.6225 13.9347 65.5127 13.9347C65.3715 13.9347 65.2461 13.888 65.1363 13.81C64.9795 13.6853 64.8384 13.5295 64.7286 13.358L63.3799 14.605C63.6308 14.9479 63.9602 15.2129 64.3365 15.3999C64.6815 15.5558 65.0579 15.6181 65.4186 15.5558C65.795 15.4934 66.2341 15.2908 66.7516 14.9323C67.1907 14.6517 67.52 14.2621 67.7239 13.7944C67.8807 13.4204 67.9121 12.9995 67.8023 12.6098C67.6141 12.0955 67.3632 11.6279 67.0339 11.1914L65.1049 8.46371ZM69.6685 10.1627L68.2414 11.2849C68.6021 11.737 69.1039 12.0487 69.7155 12.1422C70.2801 12.2357 70.9858 11.9864 71.8483 11.3941C72.2717 11.1135 72.6324 10.755 72.9147 10.3341C73.1342 9.99123 73.244 9.60156 73.2283 9.1963C73.2126 8.80662 73.0872 8.43253 72.8676 8.1208C72.6951 7.85582 72.4442 7.6376 72.1462 7.51291C71.8169 7.37262 71.4562 7.34145 71.1112 7.4038C70.7035 7.46614 70.1076 7.65319 69.3234 7.98051C69.0098 8.1208 68.7903 8.18314 68.6648 8.16756C68.555 8.16756 68.4609 8.10521 68.3982 8.02727C68.3198 7.91817 68.2884 7.77788 68.3355 7.65319C68.3982 7.48173 68.508 7.34145 68.6648 7.24793L68.7118 7.20117C69.0725 6.9206 69.6057 6.99854 69.888 7.35704L71.2994 6.25036C70.8603 5.76717 70.3898 5.53336 69.888 5.53336C69.3862 5.53336 68.8059 5.75158 68.1473 6.2036C67.7082 6.48417 67.3475 6.84267 67.0495 7.26351C66.8457 7.55967 66.7516 7.91817 66.7516 8.27667C66.7673 8.5884 66.8613 8.90014 67.0495 9.16512C67.3004 9.5548 67.7239 9.7886 68.1786 9.83536C68.6491 9.88212 69.2764 9.75743 70.0762 9.4301C70.5623 9.22747 70.8917 9.14953 71.0798 9.16512C71.1269 9.16512 71.1739 9.18071 71.221 9.1963C71.5033 9.28982 71.6601 9.60156 71.566 9.88212C71.5033 10.1003 71.3464 10.2718 71.1583 10.3965C70.8917 10.5991 70.5623 10.6615 70.2487 10.5679C70.0291 10.49 69.8253 10.3497 69.6685 10.1627Z"/>
</mask>
<path fill-rule="evenodd" clip-rule="evenodd" d="M46.7568 10.5991L50.8813 10.3341C50.9753 11.0044 51.1479 11.5032 51.4301 11.8617C51.8849 12.4228 52.5122 12.7034 53.3433 12.7034C53.955 12.7034 54.4411 12.5631 54.7704 12.2669C55.0841 12.0331 55.2723 11.659 55.2723 11.2694C55.2723 10.8953 55.0998 10.5368 54.8018 10.303C54.4881 10.0224 53.7511 9.74184 52.5906 9.49244C50.6931 9.0716 49.3287 8.51047 48.5289 7.79347C47.7291 7.12323 47.2744 6.14125 47.3057 5.09692C47.3057 4.37993 47.5253 3.66293 47.933 3.07062C48.4035 2.40038 49.0464 1.87043 49.8149 1.57428C50.646 1.21578 51.8065 1.02873 53.2649 1.02873C55.0527 1.02873 56.4171 1.35606 57.358 2.0263C58.2989 2.68095 58.8635 3.74086 59.036 5.19045L54.9586 5.42425C54.8488 4.80077 54.6293 4.34875 54.2686 4.0526C53.9079 3.75645 53.4374 3.61617 52.8258 3.61617C52.324 3.61617 51.9476 3.72527 51.6967 3.9279C51.4615 4.11495 51.3047 4.39551 51.3204 4.70725C51.3204 4.94106 51.4458 5.15927 51.634 5.29956C51.8379 5.4866 52.324 5.65805 53.0924 5.81392C54.99 6.21919 56.3386 6.62445 57.1698 7.04529C58.0009 7.46614 58.5969 7.98051 58.9576 8.5884C58.9894 8.64115 59.0199 8.69458 59.049 8.74862C59.7867 6.93045 61.0868 5.21501 62.8664 3.88207C67.3143 0.550567 73.2476 0.739653 76.0847 4.48172C78.9219 8.22379 77.4696 13.9447 73.0217 17.2762C72.8241 17.4242 72.6236 17.5652 72.4206 17.6993C73.9714 17.9333 75.2204 18.5177 76.1608 19.4525C76.7933 20.0812 77.2704 20.8366 77.588 21.7188V17.8315H77.6036H81.9319V28.3371H88.6909V31.7662H77.588V27.8613C77.4845 28.1571 77.3641 28.4351 77.2272 28.6956C76.694 29.7243 75.8629 30.566 74.8435 31.1271C73.7928 31.7039 72.4912 32 70.9387 32C69.3548 32 68.0532 31.7506 67.0182 31.2518C65.9518 30.7219 65.0736 29.8958 64.4933 28.8826C63.8504 27.7915 63.521 26.4355 63.521 24.7988C63.521 22.5902 64.1267 20.8514 65.3236 19.5967C63.1202 19.3928 61.1256 18.4205 59.8033 16.6766C59.0874 15.7323 58.6446 14.6621 58.4542 13.536C57.9718 14.1096 57.362 14.5605 56.668 14.8544C55.7741 15.244 54.645 15.4467 53.2963 15.4467C50.9126 15.4467 49.266 14.9946 48.3407 14.075C47.4155 13.1554 46.8666 12.0019 46.7568 10.5991ZM2.98798 15.1973V1.27812H10.2174C11.5504 1.27812 12.5854 1.38723 13.2911 1.62104C13.9812 1.83925 14.5928 2.29127 15.0005 2.89917C15.4553 3.5694 15.6748 4.34875 15.6592 5.15927C15.7062 6.53092 15.0005 7.84023 13.793 8.52605C13.3225 8.79103 12.805 8.97808 12.2718 9.0716C12.6639 9.18071 13.0559 9.36775 13.4009 9.58597C13.6675 9.80418 13.8871 10.0536 14.0909 10.3186C14.3262 10.5835 14.53 10.8797 14.7025 11.1914L16.8039 15.2284H11.8798L9.5588 10.942C9.26083 10.3965 9.00992 10.038 8.77469 9.86653C8.46104 9.64831 8.08467 9.5392 7.7083 9.5392H7.33193V15.1973H2.98798ZM7.33193 6.9206H9.16674C9.5588 6.88942 9.93517 6.82708 10.3115 6.73355C10.5938 6.68679 10.8447 6.53092 11.0172 6.29712C11.4407 5.73599 11.3779 4.94106 10.8604 4.45786C10.5781 4.22406 10.0293 4.09936 9.24515 4.09936H7.33193V6.9206ZM2 27.1525L6.1244 26.8875C6.2185 27.5577 6.391 28.0565 6.67328 28.415C7.11238 28.9761 7.75535 29.2723 8.5865 29.2723C9.19811 29.2723 9.68425 29.132 10.0136 28.8358C10.3272 28.5864 10.5154 28.228 10.5154 27.8383C10.5154 27.4642 10.3429 27.1057 10.0449 26.8719C9.7313 26.5913 8.99424 26.3108 7.81808 26.0614C5.92054 25.6405 4.55619 25.0794 3.7564 24.3624C2.95661 23.6921 2.50183 22.7102 2.53319 21.6658C2.53319 20.9488 2.75274 20.2318 3.16048 19.6395C3.63094 18.9693 4.27391 18.4394 5.04234 18.1432C5.87349 17.7847 7.03397 17.5977 8.49241 17.5977C10.2802 17.5977 11.6445 17.925 12.5854 18.5952C13.2457 19.0655 13.7129 19.72 13.9925 20.5694C14.2359 20.1575 14.5248 19.7851 14.8594 19.4525C16.0983 18.2211 17.839 17.5977 20.0972 17.5977C21.8693 17.5977 23.2493 17.9562 24.2687 18.6576C25.2723 19.3746 26.0251 20.4657 26.5269 21.9308L22.7005 22.7725C22.6064 22.4452 22.4652 22.1179 22.277 21.8373C22.0418 21.51 21.7439 21.2606 21.3832 21.0735C21.0225 20.8865 20.6147 20.8086 20.207 20.8086C19.219 20.8086 18.4663 21.1982 17.9488 21.9932C17.5567 22.5699 17.3529 23.4895 17.3529 24.7365C17.3529 26.2796 17.5881 27.3395 18.0586 27.9162C18.529 28.4929 19.1877 28.7735 20.0502 28.7735C20.8813 28.7735 21.5086 28.5397 21.932 28.0877C22.3555 27.6045 22.6691 26.9342 22.8573 26.0614L26.6524 27.1992C26.4485 28.15 26.0251 29.0541 25.4448 29.849C24.9116 30.5504 24.206 31.096 23.4062 31.4545C22.5907 31.813 21.5557 32 20.3011 32C18.7799 32 17.5254 31.7818 16.5687 31.3454C15.6744 30.9439 14.8995 30.2524 14.2318 29.2829C14.1563 29.4287 14.0726 29.5709 13.9812 29.7087C13.4636 30.4725 12.7423 31.0648 11.8954 31.4233C11.0016 31.8129 9.87244 32.0156 8.52377 32.0156C6.14009 32.0156 4.49346 31.5636 3.56821 30.6439C2.64297 29.7087 2.12546 28.5553 2 27.1525ZM10.1704 21.9932L13.436 21.8059C13.2159 22.4719 13.0812 23.212 13.0311 24.0254C12.8335 23.8913 12.617 23.7646 12.3816 23.6454C11.5504 23.2245 10.2018 22.8193 8.30422 22.414C7.5358 22.2582 7.04965 22.0867 6.84578 21.8997C6.6576 21.7594 6.53214 21.5412 6.53214 21.3073C6.51646 20.9956 6.6576 20.715 6.90851 20.528C7.15943 20.3098 7.5358 20.2007 8.03763 20.2007C8.64923 20.1851 9.13538 20.3254 9.48038 20.6215C9.84107 20.9177 10.0606 21.3697 10.1704 21.9932ZM31.7177 17.8315H36.046V22.7102H40.782V17.8315H45.1416V21.4625C45.4568 20.7029 45.8963 20.0428 46.4589 19.4837C47.7291 18.2211 49.5169 17.5821 51.7908 17.5821C54.1274 17.5821 55.9152 18.2056 57.1854 19.4525C58.4557 20.6995 59.083 22.4452 59.083 24.6897C59.083 26.3264 58.8007 27.6512 58.2518 28.6956C57.7186 29.7243 56.8875 30.566 55.8681 31.1271C54.8174 31.7039 53.5158 32 51.9633 32C50.3794 32 49.0778 31.7506 48.0428 31.2518C46.9764 30.7219 46.0982 29.8958 45.5179 28.8826C45.3775 28.6443 45.252 28.3933 45.1416 28.1295V31.7662H40.782V26.1237H36.046V31.7662H31.7177V17.8315ZM49.658 27.8539C49.1405 27.2304 48.8739 26.2172 48.8739 24.8144C48.8739 23.396 49.1405 22.3829 49.6737 21.775C50.2069 21.1671 50.9753 20.8242 51.7751 20.8553C52.6847 20.8553 53.4061 21.1515 53.9392 21.7594C54.4724 22.3517 54.739 23.3181 54.739 24.6274C54.739 26.1861 54.4881 27.2616 53.9706 27.8695C53.4531 28.4774 52.7317 28.7735 51.8065 28.7735C50.8969 28.7735 50.1755 28.4618 49.658 27.8539ZM68.6334 27.8539C68.1159 27.2304 67.8493 26.2172 67.8493 24.8144C67.8493 23.396 68.1159 22.3829 68.6491 21.775C69.1666 21.1671 69.9507 20.8242 70.7505 20.8553C71.6601 20.8553 72.3815 21.1515 72.9146 21.7594C73.4478 22.3517 73.7144 23.3181 73.7144 24.6274C73.7144 26.1861 73.4635 27.2616 72.946 27.8695C72.4285 28.4774 71.7071 28.7735 70.7819 28.7735C69.8723 28.7735 69.1509 28.4618 68.6334 27.8539ZM63.2439 4.37999C58.9765 7.5763 57.7414 12.921 60.3043 16.3014C62.8672 19.6817 68.3767 19.9746 72.6441 16.7783C76.9115 13.582 78.1467 8.23729 75.5838 4.85695C73.0209 1.47661 67.5113 1.18368 63.2439 4.37999ZM65.1049 8.46371L63.5367 9.5548L65.7322 12.6254C65.9047 12.8281 66.0145 13.093 66.0616 13.358C66.0772 13.5451 65.9675 13.7321 65.8106 13.8256C65.7322 13.888 65.6225 13.9347 65.5127 13.9347C65.3715 13.9347 65.2461 13.888 65.1363 13.81C64.9795 13.6853 64.8384 13.5295 64.7286 13.358L63.3799 14.605C63.6308 14.9479 63.9602 15.2129 64.3365 15.3999C64.6815 15.5558 65.0579 15.6181 65.4186 15.5558C65.795 15.4934 66.2341 15.2908 66.7516 14.9323C67.1907 14.6517 67.52 14.2621 67.7239 13.7944C67.8807 13.4204 67.9121 12.9995 67.8023 12.6098C67.6141 12.0955 67.3632 11.6279 67.0339 11.1914L65.1049 8.46371ZM69.6685 10.1627L68.2414 11.2849C68.6021 11.737 69.1039 12.0487 69.7155 12.1422C70.2801 12.2357 70.9858 11.9864 71.8483 11.3941C72.2717 11.1135 72.6324 10.755 72.9147 10.3341C73.1342 9.99123 73.244 9.60156 73.2283 9.1963C73.2126 8.80662 73.0872 8.43253 72.8676 8.1208C72.6951 7.85582 72.4442 7.6376 72.1462 7.51291C71.8169 7.37262 71.4562 7.34145 71.1112 7.4038C70.7035 7.46614 70.1076 7.65319 69.3234 7.98051C69.0098 8.1208 68.7903 8.18314 68.6648 8.16756C68.555 8.16756 68.4609 8.10521 68.3982 8.02727C68.3198 7.91817 68.2884 7.77788 68.3355 7.65319C68.3982 7.48173 68.508 7.34145 68.6648 7.24793L68.7118 7.20117C69.0725 6.9206 69.6057 6.99854 69.888 7.35704L71.2994 6.25036C70.8603 5.76717 70.3898 5.53336 69.888 5.53336C69.3862 5.53336 68.8059 5.75158 68.1473 6.2036C67.7082 6.48417 67.3475 6.84267 67.0495 7.26351C66.8457 7.55967 66.7516 7.91817 66.7516 8.27667C66.7673 8.5884 66.8613 8.90014 67.0495 9.16512C67.3004 9.5548 67.7239 9.7886 68.1786 9.83536C68.6491 9.88212 69.2764 9.75743 70.0762 9.4301C70.5623 9.22747 70.8917 9.14953 71.0798 9.16512C71.1269 9.16512 71.1739 9.18071 71.221 9.1963C71.5033 9.28982 71.6601 9.60156 71.566 9.88212C71.5033 10.1003 71.3464 10.2718 71.1583 10.3965C70.8917 10.5991 70.5623 10.6615 70.2487 10.5679C70.0291 10.49 69.8253 10.3497 69.6685 10.1627Z" fill="#E7E6E1"/>
<path fill-rule="evenodd" clip-rule="evenodd" d="M46.7568 10.5991L50.8813 10.3341C50.9753 11.0044 51.1479 11.5032 51.4301 11.8617C51.8849 12.4228 52.5122 12.7034 53.3433 12.7034C53.955 12.7034 54.4411 12.5631 54.7704 12.2669C55.0841 12.0331 55.2723 11.659 55.2723 11.2694C55.2723 10.8953 55.0998 10.5368 54.8018 10.303C54.4881 10.0224 53.7511 9.74184 52.5906 9.49244C50.6931 9.0716 49.3287 8.51047 48.5289 7.79347C47.7291 7.12323 47.2744 6.14125 47.3057 5.09692C47.3057 4.37993 47.5253 3.66293 47.933 3.07062C48.4035 2.40038 49.0464 1.87043 49.8149 1.57428C50.646 1.21578 51.8065 1.02873 53.2649 1.02873C55.0527 1.02873 56.4171 1.35606 57.358 2.0263C58.2989 2.68095 58.8635 3.74086 59.036 5.19045L54.9586 5.42425C54.8488 4.80077 54.6293 4.34875 54.2686 4.0526C53.9079 3.75645 53.4374 3.61617 52.8258 3.61617C52.324 3.61617 51.9476 3.72527 51.6967 3.9279C51.4615 4.11495 51.3047 4.39551 51.3204 4.70725C51.3204 4.94106 51.4458 5.15927 51.634 5.29956C51.8379 5.4866 52.324 5.65805 53.0924 5.81392C54.99 6.21919 56.3386 6.62445 57.1698 7.04529C58.0009 7.46614 58.5969 7.98051 58.9576 8.5884C58.9894 8.64115 59.0199 8.69458 59.049 8.74862C59.7867 6.93045 61.0868 5.21501 62.8664 3.88207C67.3143 0.550567 73.2476 0.739653 76.0847 4.48172C78.9219 8.22379 77.4696 13.9447 73.0217 17.2762C72.8241 17.4242 72.6236 17.5652 72.4206 17.6993C73.9714 17.9333 75.2204 18.5177 76.1608 19.4525C76.7933 20.0812 77.2704 20.8366 77.588 21.7188V17.8315H77.6036H81.9319V28.3371H88.6909V31.7662H77.588V27.8613C77.4845 28.1571 77.3641 28.4351 77.2272 28.6956C76.694 29.7243 75.8629 30.566 74.8435 31.1271C73.7928 31.7039 72.4912 32 70.9387 32C69.3548 32 68.0532 31.7506 67.0182 31.2518C65.9518 30.7219 65.0736 29.8958 64.4933 28.8826C63.8504 27.7915 63.521 26.4355 63.521 24.7988C63.521 22.5902 64.1267 20.8514 65.3236 19.5967C63.1202 19.3928 61.1256 18.4205 59.8033 16.6766C59.0874 15.7323 58.6446 14.6621 58.4542 13.536C57.9718 14.1096 57.362 14.5605 56.668 14.8544C55.7741 15.244 54.645 15.4467 53.2963 15.4467C50.9126 15.4467 49.266 14.9946 48.3407 14.075C47.4155 13.1554 46.8666 12.0019 46.7568 10.5991ZM2.98798 15.1973V1.27812H10.2174C11.5504 1.27812 12.5854 1.38723 13.2911 1.62104C13.9812 1.83925 14.5928 2.29127 15.0005 2.89917C15.4553 3.5694 15.6748 4.34875 15.6592 5.15927C15.7062 6.53092 15.0005 7.84023 13.793 8.52605C13.3225 8.79103 12.805 8.97808 12.2718 9.0716C12.6639 9.18071 13.0559 9.36775 13.4009 9.58597C13.6675 9.80418 13.8871 10.0536 14.0909 10.3186C14.3262 10.5835 14.53 10.8797 14.7025 11.1914L16.8039 15.2284H11.8798L9.5588 10.942C9.26083 10.3965 9.00992 10.038 8.77469 9.86653C8.46104 9.64831 8.08467 9.5392 7.7083 9.5392H7.33193V15.1973H2.98798ZM7.33193 6.9206H9.16674C9.5588 6.88942 9.93517 6.82708 10.3115 6.73355C10.5938 6.68679 10.8447 6.53092 11.0172 6.29712C11.4407 5.73599 11.3779 4.94106 10.8604 4.45786C10.5781 4.22406 10.0293 4.09936 9.24515 4.09936H7.33193V6.9206ZM2 27.1525L6.1244 26.8875C6.2185 27.5577 6.391 28.0565 6.67328 28.415C7.11238 28.9761 7.75535 29.2723 8.5865 29.2723C9.19811 29.2723 9.68425 29.132 10.0136 28.8358C10.3272 28.5864 10.5154 28.228 10.5154 27.8383C10.5154 27.4642 10.3429 27.1057 10.0449 26.8719C9.7313 26.5913 8.99424 26.3108 7.81808 26.0614C5.92054 25.6405 4.55619 25.0794 3.7564 24.3624C2.95661 23.6921 2.50183 22.7102 2.53319 21.6658C2.53319 20.9488 2.75274 20.2318 3.16048 19.6395C3.63094 18.9693 4.27391 18.4394 5.04234 18.1432C5.87349 17.7847 7.03397 17.5977 8.49241 17.5977C10.2802 17.5977 11.6445 17.925 12.5854 18.5952C13.2457 19.0655 13.7129 19.72 13.9925 20.5694C14.2359 20.1575 14.5248 19.7851 14.8594 19.4525C16.0983 18.2211 17.839 17.5977 20.0972 17.5977C21.8693 17.5977 23.2493 17.9562 24.2687 18.6576C25.2723 19.3746 26.0251 20.4657 26.5269 21.9308L22.7005 22.7725C22.6064 22.4452 22.4652 22.1179 22.277 21.8373C22.0418 21.51 21.7439 21.2606 21.3832 21.0735C21.0225 20.8865 20.6147 20.8086 20.207 20.8086C19.219 20.8086 18.4663 21.1982 17.9488 21.9932C17.5567 22.5699 17.3529 23.4895 17.3529 24.7365C17.3529 26.2796 17.5881 27.3395 18.0586 27.9162C18.529 28.4929 19.1877 28.7735 20.0502 28.7735C20.8813 28.7735 21.5086 28.5397 21.932 28.0877C22.3555 27.6045 22.6691 26.9342 22.8573 26.0614L26.6524 27.1992C26.4485 28.15 26.0251 29.0541 25.4448 29.849C24.9116 30.5504 24.206 31.096 23.4062 31.4545C22.5907 31.813 21.5557 32 20.3011 32C18.7799 32 17.5254 31.7818 16.5687 31.3454C15.6744 30.9439 14.8995 30.2524 14.2318 29.2829C14.1563 29.4287 14.0726 29.5709 13.9812 29.7087C13.4636 30.4725 12.7423 31.0648 11.8954 31.4233C11.0016 31.8129 9.87244 32.0156 8.52377 32.0156C6.14009 32.0156 4.49346 31.5636 3.56821 30.6439C2.64297 29.7087 2.12546 28.5553 2 27.1525ZM10.1704 21.9932L13.436 21.8059C13.2159 22.4719 13.0812 23.212 13.0311 24.0254C12.8335 23.8913 12.617 23.7646 12.3816 23.6454C11.5504 23.2245 10.2018 22.8193 8.30422 22.414C7.5358 22.2582 7.04965 22.0867 6.84578 21.8997C6.6576 21.7594 6.53214 21.5412 6.53214 21.3073C6.51646 20.9956 6.6576 20.715 6.90851 20.528C7.15943 20.3098 7.5358 20.2007 8.03763 20.2007C8.64923 20.1851 9.13538 20.3254 9.48038 20.6215C9.84107 20.9177 10.0606 21.3697 10.1704 21.9932ZM31.7177 17.8315H36.046V22.7102H40.782V17.8315H45.1416V21.4625C45.4568 20.7029 45.8963 20.0428 46.4589 19.4837C47.7291 18.2211 49.5169 17.5821 51.7908 17.5821C54.1274 17.5821 55.9152 18.2056 57.1854 19.4525C58.4557 20.6995 59.083 22.4452 59.083 24.6897C59.083 26.3264 58.8007 27.6512 58.2518 28.6956C57.7186 29.7243 56.8875 30.566 55.8681 31.1271C54.8174 31.7039 53.5158 32 51.9633 32C50.3794 32 49.0778 31.7506 48.0428 31.2518C46.9764 30.7219 46.0982 29.8958 45.5179 28.8826C45.3775 28.6443 45.252 28.3933 45.1416 28.1295V31.7662H40.782V26.1237H36.046V31.7662H31.7177V17.8315ZM49.658 27.8539C49.1405 27.2304 48.8739 26.2172 48.8739 24.8144C48.8739 23.396 49.1405 22.3829 49.6737 21.775C50.2069 21.1671 50.9753 20.8242 51.7751 20.8553C52.6847 20.8553 53.4061 21.1515 53.9392 21.7594C54.4724 22.3517 54.739 23.3181 54.739 24.6274C54.739 26.1861 54.4881 27.2616 53.9706 27.8695C53.4531 28.4774 52.7317 28.7735 51.8065 28.7735C50.8969 28.7735 50.1755 28.4618 49.658 27.8539ZM68.6334 27.8539C68.1159 27.2304 67.8493 26.2172 67.8493 24.8144C67.8493 23.396 68.1159 22.3829 68.6491 21.775C69.1666 21.1671 69.9507 20.8242 70.7505 20.8553C71.6601 20.8553 72.3815 21.1515 72.9146 21.7594C73.4478 22.3517 73.7144 23.3181 73.7144 24.6274C73.7144 26.1861 73.4635 27.2616 72.946 27.8695C72.4285 28.4774 71.7071 28.7735 70.7819 28.7735C69.8723 28.7735 69.1509 28.4618 68.6334 27.8539ZM63.2439 4.37999C58.9765 7.5763 57.7414 12.921 60.3043 16.3014C62.8672 19.6817 68.3767 19.9746 72.6441 16.7783C76.9115 13.582 78.1467 8.23729 75.5838 4.85695C73.0209 1.47661 67.5113 1.18368 63.2439 4.37999ZM65.1049 8.46371L63.5367 9.5548L65.7322 12.6254C65.9047 12.8281 66.0145 13.093 66.0616 13.358C66.0772 13.5451 65.9675 13.7321 65.8106 13.8256C65.7322 13.888 65.6225 13.9347 65.5127 13.9347C65.3715 13.9347 65.2461 13.888 65.1363 13.81C64.9795 13.6853 64.8384 13.5295 64.7286 13.358L63.3799 14.605C63.6308 14.9479 63.9602 15.2129 64.3365 15.3999C64.6815 15.5558 65.0579 15.6181 65.4186 15.5558C65.795 15.4934 66.2341 15.2908 66.7516 14.9323C67.1907 14.6517 67.52 14.2621 67.7239 13.7944C67.8807 13.4204 67.9121 12.9995 67.8023 12.6098C67.6141 12.0955 67.3632 11.6279 67.0339 11.1914L65.1049 8.46371ZM69.6685 10.1627L68.2414 11.2849C68.6021 11.737 69.1039 12.0487 69.7155 12.1422C70.2801 12.2357 70.9858 11.9864 71.8483 11.3941C72.2717 11.1135 72.6324 10.755 72.9147 10.3341C73.1342 9.99123 73.244 9.60156 73.2283 9.1963C73.2126 8.80662 73.0872 8.43253 72.8676 8.1208C72.6951 7.85582 72.4442 7.6376 72.1462 7.51291C71.8169 7.37262 71.4562 7.34145 71.1112 7.4038C70.7035 7.46614 70.1076 7.65319 69.3234 7.98051C69.0098 8.1208 68.7903 8.18314 68.6648 8.16756C68.555 8.16756 68.4609 8.10521 68.3982 8.02727C68.3198 7.91817 68.2884 7.77788 68.3355 7.65319C68.3982 7.48173 68.508 7.34145 68.6648 7.24793L68.7118 7.20117C69.0725 6.9206 69.6057 6.99854 69.888 7.35704L71.2994 6.25036C70.8603 5.76717 70.3898 5.53336 69.888 5.53336C69.3862 5.53336 68.8059 5.75158 68.1473 6.2036C67.7082 6.48417 67.3475 6.84267 67.0495 7.26351C66.8457 7.55967 66.7516 7.91817 66.7516 8.27667C66.7673 8.5884 66.8613 8.90014 67.0495 9.16512C67.3004 9.5548 67.7239 9.7886 68.1786 9.83536C68.6491 9.88212 69.2764 9.75743 70.0762 9.4301C70.5623 9.22747 70.8917 9.14953 71.0798 9.16512C71.1269 9.16512 71.1739 9.18071 71.221 9.1963C71.5033 9.28982 71.6601 9.60156 71.566 9.88212C71.5033 10.1003 71.3464 10.2718 71.1583 10.3965C70.8917 10.5991 70.5623 10.6615 70.2487 10.5679C70.0291 10.49 69.8253 10.3497 69.6685 10.1627Z" stroke="#262B30" stroke-width="2" mask="url(#path-1-outside-1_540_3870)"/>
</svg>
