<svg width="88" height="32" viewBox="0 0 88 32" fill="#FFFFFF" xmlns="http://www.w3.org/2000/svg">
<path fill-rule="evenodd" clip-rule="evenodd" d="M45.4114 10.5991L49.5358 10.3341C49.6299 11.0044 49.8024 11.5032 50.0847 11.8617C50.5395 12.4228 51.1667 12.7034 51.9979 12.7034C52.6095 12.7034 53.0956 12.5631 53.425 12.2669C53.7386 12.0331 53.9268 11.659 53.9268 11.2694C53.9268 10.8953 53.7543 10.5368 53.4563 10.303C53.1427 10.0224 52.4056 9.74183 51.2452 9.49244C49.3476 9.0716 47.9833 8.51047 47.1835 7.79347C46.3837 7.12323 45.9289 6.14125 45.9603 5.09692C45.9603 4.37993 46.1798 3.66293 46.5876 3.07062C47.058 2.40038 47.701 1.87043 48.4694 1.57428C49.3006 1.21578 50.461 1.02873 51.9195 1.02873C53.7072 1.02873 55.0716 1.35606 56.0125 2.0263C56.9534 2.68095 57.518 3.74086 57.6905 5.19045L53.6132 5.42425C53.5034 4.80077 53.2838 4.34875 52.9231 4.0526C52.5625 3.75645 52.092 3.61617 51.4804 3.61617C50.9785 3.61617 50.6022 3.72527 50.3513 3.9279C50.116 4.11495 49.9592 4.39551 49.9749 4.70725C49.9749 4.94106 50.1003 5.15927 50.2885 5.29956C50.4924 5.4866 50.9785 5.65805 51.747 5.81392C53.6445 6.21918 54.9932 6.62445 55.8243 7.04529C56.6555 7.46614 57.2514 7.98051 57.6121 8.5884C57.6439 8.64115 57.6744 8.69458 57.7036 8.74862C58.4413 6.93045 59.7413 5.21501 61.5209 3.88207C65.9688 0.550567 71.9021 0.739653 74.7393 4.48172C77.5765 8.22379 76.1241 13.9447 71.6762 17.2762C71.4787 17.4242 71.2782 17.5652 71.0752 17.6993C72.626 17.9333 73.8749 18.5177 74.8154 19.4525C75.4479 20.0812 75.9249 20.8366 76.2425 21.7188V17.8315H76.2582H80.5864V28.3371H87.3455V31.7662H76.2425V27.8613C76.139 28.1571 76.0187 28.4351 75.8818 28.6956C75.3486 29.7243 74.5174 30.566 73.4981 31.1271C72.4474 31.7039 71.1458 32 69.5932 32C68.0093 32 66.7077 31.7506 65.6727 31.2518C64.6063 30.7219 63.7281 29.8958 63.1479 28.8826C62.5049 27.7915 62.1756 26.4355 62.1756 24.7988C62.1756 22.5902 62.7812 20.8514 63.9781 19.5967C61.7747 19.3928 59.7801 18.4205 58.4579 16.6766C57.742 15.7323 57.2992 14.6621 57.1087 13.536C56.6264 14.1096 56.0166 14.5605 55.3225 14.8544C54.4286 15.244 53.2995 15.4467 51.9508 15.4467C49.5672 15.4467 47.9205 14.9946 46.9953 14.075C46.07 13.1554 45.5212 12.0019 45.4114 10.5991ZM1.64252 15.1973V1.27812H8.87199C10.205 1.27812 11.24 1.38723 11.9457 1.62104C12.6357 1.83925 13.2473 2.29127 13.655 2.89917C14.1098 3.5694 14.3294 4.34875 14.3137 5.15927C14.3607 6.53092 13.655 7.84023 12.4475 8.52605C11.9771 8.79103 11.4595 8.97808 10.9263 9.0716C11.3184 9.18071 11.7105 9.36775 12.0555 9.58597C12.3221 9.80418 12.5416 10.0536 12.7455 10.3186C12.9807 10.5835 13.1846 10.8797 13.3571 11.1914L15.4585 15.2284H10.5343L8.21334 10.942C7.91538 10.3965 7.66446 10.038 7.42923 9.86653C7.11559 9.64831 6.73921 9.5392 6.36284 9.5392H5.98647V15.1973H1.64252ZM5.98647 6.9206H7.82128C8.21334 6.88942 8.58971 6.82708 8.96608 6.73355C9.24836 6.68679 9.49927 6.53092 9.67178 6.29712C10.0952 5.73599 10.0325 4.94106 9.51495 4.45786C9.23268 4.22406 8.6838 4.09936 7.89969 4.09936H5.98647V6.9206ZM0.654541 27.1525L4.77895 26.8875C4.87304 27.5577 5.04554 28.0565 5.32782 28.415C5.76692 28.9761 6.40989 29.2723 7.24104 29.2723C7.85265 29.2723 8.33879 29.132 8.66812 28.8358C8.98176 28.5865 9.16995 28.228 9.16995 27.8383C9.16995 27.4642 8.99744 27.1057 8.69948 26.8719C8.38584 26.5913 7.64878 26.3108 6.47262 26.0614C4.57508 25.6405 3.21073 25.0794 2.41094 24.3624C1.61115 23.6922 1.15637 22.7102 1.18773 21.6658C1.18773 20.9488 1.40728 20.2318 1.81502 19.6395C2.28548 18.9693 2.92845 18.4394 3.69688 18.1432C4.52803 17.7847 5.68851 17.5977 7.14695 17.5977C8.93472 17.5977 10.2991 17.925 11.24 18.5952C11.9002 19.0655 12.3674 19.72 12.647 20.5694C12.8904 20.1575 13.1793 19.7851 13.5139 19.4525C14.7528 18.2211 16.4935 17.5977 18.7518 17.5977C20.5239 17.5977 21.9039 17.9562 22.9232 18.6576C23.9269 19.3746 24.6796 20.4657 25.1814 21.9308L21.355 22.7725C21.2609 22.4452 21.1198 22.1179 20.9316 21.8373C20.6964 21.51 20.3984 21.2606 20.0377 21.0735C19.677 20.8865 19.2693 20.8086 18.8615 20.8086C17.8736 20.8086 17.1208 21.1982 16.6033 21.9932C16.2113 22.5699 16.0074 23.4895 16.0074 24.7365C16.0074 26.2796 16.2426 27.3395 16.7131 27.9162C17.1836 28.4929 17.8422 28.7735 18.7047 28.7735C19.5359 28.7735 20.1632 28.5397 20.5866 28.0877C21.01 27.6045 21.3236 26.9342 21.5118 26.0614L25.3069 27.1992C25.103 28.15 24.6796 29.0541 24.0994 29.849C23.5662 30.5504 22.8605 31.096 22.0607 31.4545C21.2452 31.813 20.2102 32 18.9556 32C17.4345 32 16.1799 31.7818 15.2233 31.3454C14.329 30.9439 13.5541 30.2524 12.8864 29.2829C12.8108 29.4287 12.7271 29.5709 12.6357 29.7087C12.1182 30.4725 11.3968 31.0648 10.55 31.4233C9.65609 31.813 8.52698 32.0156 7.17831 32.0156C4.79463 32.0156 3.148 31.5636 2.22276 30.6439C1.29751 29.7087 0.779998 28.5553 0.654541 27.1525ZM8.82494 21.9932L12.0905 21.8059C11.8704 22.4719 11.7357 23.212 11.6857 24.0254C11.488 23.8913 11.2715 23.7646 11.0361 23.6454C10.205 23.2245 8.8563 22.8193 6.95876 22.414C6.19034 22.2582 5.70419 22.0867 5.50032 21.8997C5.31214 21.7594 5.18668 21.5412 5.18668 21.3073C5.171 20.9956 5.31214 20.715 5.56305 20.528C5.81397 20.3098 6.19034 20.2007 6.69217 20.2007C7.30377 20.1851 7.78992 20.3254 8.13493 20.6215C8.49561 20.9177 8.71516 21.3697 8.82494 21.9932ZM30.3722 17.8315H34.7005V22.7102H39.4365V17.8315H43.7962V21.4625C44.1113 20.7029 44.5508 20.0428 45.1134 19.4837C46.3837 18.2211 48.1714 17.5821 50.4453 17.5821C52.782 17.5821 54.5697 18.2056 55.84 19.4525C57.1102 20.6995 57.7375 22.4452 57.7375 24.6897C57.7375 26.3264 57.4553 27.6512 56.9064 28.6956C56.3732 29.7243 55.542 30.566 54.5227 31.1271C53.472 31.7039 52.1704 32 50.6178 32C49.0339 32 47.7323 31.7506 46.6973 31.2518C45.6309 30.7219 44.7527 29.8958 44.1725 28.8826C44.032 28.6443 43.9065 28.3933 43.7962 28.1295V31.7662H39.4365V26.1237H34.7005V31.7662H30.3722V17.8315ZM48.3126 27.8539C47.795 27.2304 47.5285 26.2172 47.5285 24.8144C47.5285 23.396 47.795 22.3829 48.3282 21.775C48.8614 21.1671 49.6299 20.8242 50.4296 20.8553C51.3392 20.8553 52.0606 21.1515 52.5938 21.7594C53.127 22.3517 53.3936 23.3181 53.3936 24.6274C53.3936 26.1861 53.1427 27.2616 52.6251 27.8695C52.1076 28.4774 51.3863 28.7735 50.461 28.7735C49.5515 28.7735 48.8301 28.4618 48.3126 27.8539ZM67.288 27.8539C66.7704 27.2304 66.5038 26.2172 66.5038 24.8144C66.5038 23.396 66.7704 22.3829 67.3036 21.775C67.8211 21.1671 68.6053 20.8242 69.405 20.8553C70.3146 20.8553 71.036 21.1515 71.5692 21.7594C72.1024 22.3517 72.369 23.3181 72.369 24.6274C72.369 26.1861 72.1181 27.2616 71.6005 27.8695C71.083 28.4774 70.3617 28.7735 69.4364 28.7735C68.5268 28.7735 67.8055 28.4618 67.288 27.8539ZM61.8985 4.37999C57.6311 7.5763 56.3959 12.921 58.9588 16.3014C61.5218 19.6817 67.0313 19.9746 71.2987 16.7783C75.5661 13.582 76.8012 8.23729 74.2383 4.85695C71.6754 1.47661 66.1659 1.18368 61.8985 4.37999ZM63.7595 8.46371L62.1913 9.5548L64.3868 12.6254C64.5593 12.8281 64.6691 13.093 64.7161 13.358C64.7318 13.5451 64.622 13.7321 64.4652 13.8256C64.3868 13.888 64.277 13.9347 64.1672 13.9347C64.0261 13.9347 63.9006 13.888 63.7909 13.81C63.634 13.6853 63.4929 13.5295 63.3831 13.358L62.0345 14.605C62.2854 14.9479 62.6147 15.2129 62.9911 15.3999C63.3361 15.5558 63.7124 15.6181 64.0731 15.5558C64.4495 15.4934 64.8886 15.2908 65.4061 14.9323C65.8452 14.6517 66.1745 14.2621 66.3784 13.7944C66.5352 13.4204 66.5666 12.9995 66.4568 12.6098C66.2686 12.0955 66.0177 11.6279 65.6884 11.1914L63.7595 8.46371ZM68.323 10.1627L66.8959 11.2849C67.2566 11.737 67.7584 12.0487 68.37 12.1422C68.9346 12.2358 69.6403 11.9864 70.5028 11.3941C70.9262 11.1135 71.2869 10.755 71.5692 10.3341C71.7887 9.99123 71.8985 9.60156 71.8828 9.1963C71.8672 8.80662 71.7417 8.43254 71.5221 8.1208C71.3496 7.85582 71.0987 7.6376 70.8008 7.51291C70.4714 7.37262 70.1108 7.34145 69.7658 7.4038C69.358 7.46614 68.7621 7.65319 67.978 7.98051C67.6643 8.1208 67.4448 8.18314 67.3193 8.16756C67.2096 8.16756 67.1155 8.10521 67.0527 8.02727C66.9743 7.91817 66.943 7.77788 66.99 7.65319C67.0527 7.48173 67.1625 7.34145 67.3193 7.24793L67.3664 7.20117C67.7271 6.9206 68.2603 6.99854 68.5425 7.35704L69.9539 6.25036C69.5148 5.76717 69.0444 5.53336 68.5425 5.53336C68.0407 5.53336 67.4605 5.75158 66.8018 6.2036C66.3627 6.48417 66.002 6.84267 65.7041 7.26351C65.5002 7.55967 65.4061 7.91817 65.4061 8.27667C65.4218 8.5884 65.5159 8.90014 65.7041 9.16512C65.955 9.5548 66.3784 9.7886 66.8332 9.83536C67.3036 9.88212 67.9309 9.75743 68.7307 9.4301C69.2169 9.22747 69.5462 9.14954 69.7344 9.16512C69.7814 9.16512 69.8285 9.18071 69.8755 9.1963C70.1578 9.28982 70.3146 9.60156 70.2205 9.88212C70.1578 10.1003 70.001 10.2718 69.8128 10.3965C69.5462 10.5991 69.2169 10.6615 68.9032 10.5679C68.6837 10.49 68.4798 10.3497 68.323 10.1627Z"/>
</svg>
